<mxfile host="app.diagrams.net" modified="2023-06-11T16:02:00.330Z" agent="Mozilla/5.0 (Windows NT 10.0; Win64; x64) AppleWebKit/537.36 (KHTML, like Gecko) Chrome/114.0.0.0 Safari/537.36" etag="3CFMrwliD_9BDt7uTpYe" version="21.3.8" type="device">
  <diagram id="07fea595-8f29-1299-0266-81d95cde20df" name="Page-1">
    <mxGraphModel dx="1500" dy="836" grid="1" gridSize="10" guides="1" tooltips="1" connect="1" arrows="1" fold="1" page="1" pageScale="1" pageWidth="1169" pageHeight="827" background="#ffffff" math="0" shadow="0">
      <root>
        <mxCell id="0" />
        <mxCell id="1" parent="0" />
        <mxCell id="FphYJKXXtfjOOIKzSNrh-217" value="" style="rounded=0;whiteSpace=wrap;html=1;" vertex="1" parent="1">
          <mxGeometry x="150" y="90" width="200" height="700" as="geometry" />
        </mxCell>
        <mxCell id="FphYJKXXtfjOOIKzSNrh-218" value="" style="rounded=0;whiteSpace=wrap;html=1;" vertex="1" parent="1">
          <mxGeometry x="350" y="90" width="200" height="700" as="geometry" />
        </mxCell>
        <mxCell id="FphYJKXXtfjOOIKzSNrh-219" value="" style="rounded=0;whiteSpace=wrap;html=1;" vertex="1" parent="1">
          <mxGeometry x="550" y="90" width="200" height="700" as="geometry" />
        </mxCell>
        <mxCell id="FphYJKXXtfjOOIKzSNrh-220" value="" style="rounded=0;whiteSpace=wrap;html=1;" vertex="1" parent="1">
          <mxGeometry x="750" y="90" width="200" height="700" as="geometry" />
        </mxCell>
        <mxCell id="FphYJKXXtfjOOIKzSNrh-221" value="Korisnik" style="rounded=0;whiteSpace=wrap;html=1;" vertex="1" parent="1">
          <mxGeometry x="350" y="60" width="200" height="30" as="geometry" />
        </mxCell>
        <mxCell id="FphYJKXXtfjOOIKzSNrh-222" value="Sustav naplate" style="rounded=0;whiteSpace=wrap;html=1;" vertex="1" parent="1">
          <mxGeometry x="150" y="60" width="200" height="30" as="geometry" />
        </mxCell>
        <mxCell id="FphYJKXXtfjOOIKzSNrh-223" value="Digital Game Store" style="rounded=0;whiteSpace=wrap;html=1;" vertex="1" parent="1">
          <mxGeometry x="550" y="60" width="200" height="30" as="geometry" />
        </mxCell>
        <mxCell id="FphYJKXXtfjOOIKzSNrh-224" value="Administrator" style="rounded=0;whiteSpace=wrap;html=1;" vertex="1" parent="1">
          <mxGeometry x="750" y="60" width="200" height="30" as="geometry" />
        </mxCell>
        <mxCell id="FphYJKXXtfjOOIKzSNrh-229" style="edgeStyle=orthogonalEdgeStyle;rounded=0;orthogonalLoop=1;jettySize=auto;html=1;exitX=0.5;exitY=1;exitDx=0;exitDy=0;entryX=0.5;entryY=0;entryDx=0;entryDy=0;" edge="1" parent="1" source="FphYJKXXtfjOOIKzSNrh-225" target="FphYJKXXtfjOOIKzSNrh-228">
          <mxGeometry relative="1" as="geometry" />
        </mxCell>
        <mxCell id="FphYJKXXtfjOOIKzSNrh-225" value="" style="ellipse;whiteSpace=wrap;html=1;aspect=fixed;" vertex="1" parent="1">
          <mxGeometry x="635" y="110" width="30" height="30" as="geometry" />
        </mxCell>
        <mxCell id="FphYJKXXtfjOOIKzSNrh-231" style="edgeStyle=orthogonalEdgeStyle;rounded=0;orthogonalLoop=1;jettySize=auto;html=1;exitX=0.5;exitY=1;exitDx=0;exitDy=0;entryX=0.5;entryY=0;entryDx=0;entryDy=0;" edge="1" parent="1" source="FphYJKXXtfjOOIKzSNrh-228" target="FphYJKXXtfjOOIKzSNrh-230">
          <mxGeometry relative="1" as="geometry" />
        </mxCell>
        <mxCell id="FphYJKXXtfjOOIKzSNrh-228" value="Prijava" style="rounded=1;whiteSpace=wrap;html=1;" vertex="1" parent="1">
          <mxGeometry x="610" y="170" width="80" height="25" as="geometry" />
        </mxCell>
        <mxCell id="FphYJKXXtfjOOIKzSNrh-233" style="edgeStyle=orthogonalEdgeStyle;rounded=0;orthogonalLoop=1;jettySize=auto;html=1;exitX=0.5;exitY=1;exitDx=0;exitDy=0;entryX=0.5;entryY=0;entryDx=0;entryDy=0;" edge="1" parent="1" source="FphYJKXXtfjOOIKzSNrh-230" target="FphYJKXXtfjOOIKzSNrh-232">
          <mxGeometry relative="1" as="geometry" />
        </mxCell>
        <mxCell id="FphYJKXXtfjOOIKzSNrh-230" value="Autorizacija" style="rounded=1;whiteSpace=wrap;html=1;" vertex="1" parent="1">
          <mxGeometry x="590" y="220" width="120" height="20" as="geometry" />
        </mxCell>
        <mxCell id="FphYJKXXtfjOOIKzSNrh-244" style="edgeStyle=orthogonalEdgeStyle;rounded=0;orthogonalLoop=1;jettySize=auto;html=1;exitX=1;exitY=0;exitDx=0;exitDy=0;entryX=1;entryY=0.5;entryDx=0;entryDy=0;" edge="1" parent="1" source="FphYJKXXtfjOOIKzSNrh-232" target="FphYJKXXtfjOOIKzSNrh-228">
          <mxGeometry relative="1" as="geometry">
            <Array as="points">
              <mxPoint x="665" y="290" />
              <mxPoint x="740" y="290" />
              <mxPoint x="740" y="183" />
            </Array>
          </mxGeometry>
        </mxCell>
        <mxCell id="FphYJKXXtfjOOIKzSNrh-257" style="edgeStyle=orthogonalEdgeStyle;rounded=0;orthogonalLoop=1;jettySize=auto;html=1;exitX=0.5;exitY=1;exitDx=0;exitDy=0;" edge="1" parent="1" source="FphYJKXXtfjOOIKzSNrh-232">
          <mxGeometry relative="1" as="geometry">
            <mxPoint x="649.9444444444445" y="340" as="targetPoint" />
          </mxGeometry>
        </mxCell>
        <mxCell id="FphYJKXXtfjOOIKzSNrh-232" value="Provjera" style="rhombus;whiteSpace=wrap;html=1;" vertex="1" parent="1">
          <mxGeometry x="620" y="260" width="60" height="60" as="geometry" />
        </mxCell>
        <mxCell id="FphYJKXXtfjOOIKzSNrh-234" value="Vlasnik sustava" style="rounded=0;whiteSpace=wrap;html=1;" vertex="1" parent="1">
          <mxGeometry x="950" y="60" width="200" height="30" as="geometry" />
        </mxCell>
        <mxCell id="FphYJKXXtfjOOIKzSNrh-235" value="" style="rounded=0;whiteSpace=wrap;html=1;" vertex="1" parent="1">
          <mxGeometry x="950" y="90" width="200" height="700" as="geometry" />
        </mxCell>
        <mxCell id="FphYJKXXtfjOOIKzSNrh-236" value="" style="ellipse;whiteSpace=wrap;html=1;aspect=fixed;fillColor=#000000;" vertex="1" parent="1">
          <mxGeometry x="640" y="115" width="20" height="20" as="geometry" />
        </mxCell>
        <mxCell id="FphYJKXXtfjOOIKzSNrh-245" value="Neuspjeh" style="text;html=1;strokeColor=none;fillColor=none;align=center;verticalAlign=middle;whiteSpace=wrap;rounded=0;" vertex="1" parent="1">
          <mxGeometry x="680" y="270" width="50" height="30" as="geometry" />
        </mxCell>
        <mxCell id="FphYJKXXtfjOOIKzSNrh-252" value="" style="endArrow=none;html=1;rounded=0;entryX=0.9;entryY=0.357;entryDx=0;entryDy=0;entryPerimeter=0;" edge="1" parent="1" target="FphYJKXXtfjOOIKzSNrh-219">
          <mxGeometry width="50" height="50" relative="1" as="geometry">
            <mxPoint x="650" y="340" as="sourcePoint" />
            <mxPoint x="720" y="340" as="targetPoint" />
          </mxGeometry>
        </mxCell>
        <mxCell id="FphYJKXXtfjOOIKzSNrh-253" value="" style="endArrow=none;html=1;rounded=0;" edge="1" parent="1">
          <mxGeometry width="50" height="50" relative="1" as="geometry">
            <mxPoint x="570" y="340" as="sourcePoint" />
            <mxPoint x="650" y="340" as="targetPoint" />
          </mxGeometry>
        </mxCell>
        <mxCell id="FphYJKXXtfjOOIKzSNrh-254" value="Uspjeh" style="text;html=1;strokeColor=none;fillColor=none;align=center;verticalAlign=middle;whiteSpace=wrap;rounded=0;" vertex="1" parent="1">
          <mxGeometry x="650" y="320" width="50" height="20" as="geometry" />
        </mxCell>
        <mxCell id="FphYJKXXtfjOOIKzSNrh-266" style="edgeStyle=orthogonalEdgeStyle;rounded=0;orthogonalLoop=1;jettySize=auto;html=1;exitX=0.5;exitY=1;exitDx=0;exitDy=0;entryX=0.5;entryY=0;entryDx=0;entryDy=0;" edge="1" parent="1" source="FphYJKXXtfjOOIKzSNrh-258" target="FphYJKXXtfjOOIKzSNrh-264">
          <mxGeometry relative="1" as="geometry" />
        </mxCell>
        <mxCell id="FphYJKXXtfjOOIKzSNrh-258" value="Pregled igara" style="rounded=1;whiteSpace=wrap;html=1;" vertex="1" parent="1">
          <mxGeometry x="380" y="360" width="140" height="30" as="geometry" />
        </mxCell>
        <mxCell id="FphYJKXXtfjOOIKzSNrh-280" style="edgeStyle=orthogonalEdgeStyle;rounded=0;orthogonalLoop=1;jettySize=auto;html=1;exitX=0.5;exitY=1;exitDx=0;exitDy=0;entryX=0.5;entryY=0;entryDx=0;entryDy=0;" edge="1" parent="1" source="FphYJKXXtfjOOIKzSNrh-259" target="FphYJKXXtfjOOIKzSNrh-275">
          <mxGeometry relative="1" as="geometry" />
        </mxCell>
        <mxCell id="FphYJKXXtfjOOIKzSNrh-259" value="Funkcije upravljanja sustavom" style="rounded=1;whiteSpace=wrap;html=1;" vertex="1" parent="1">
          <mxGeometry x="780" y="355" width="140" height="40" as="geometry" />
        </mxCell>
        <mxCell id="FphYJKXXtfjOOIKzSNrh-262" value="" style="endArrow=classic;html=1;rounded=0;entryX=1;entryY=0.5;entryDx=0;entryDy=0;" edge="1" parent="1" target="FphYJKXXtfjOOIKzSNrh-258">
          <mxGeometry width="50" height="50" relative="1" as="geometry">
            <mxPoint x="590" y="340" as="sourcePoint" />
            <mxPoint x="700" y="390" as="targetPoint" />
            <Array as="points">
              <mxPoint x="590" y="375" />
            </Array>
          </mxGeometry>
        </mxCell>
        <mxCell id="FphYJKXXtfjOOIKzSNrh-263" value="" style="endArrow=classic;html=1;rounded=0;entryX=0;entryY=0.5;entryDx=0;entryDy=0;" edge="1" parent="1" target="FphYJKXXtfjOOIKzSNrh-259">
          <mxGeometry width="50" height="50" relative="1" as="geometry">
            <mxPoint x="710" y="340" as="sourcePoint" />
            <mxPoint x="700" y="390" as="targetPoint" />
            <Array as="points">
              <mxPoint x="710" y="375" />
            </Array>
          </mxGeometry>
        </mxCell>
        <mxCell id="FphYJKXXtfjOOIKzSNrh-267" style="edgeStyle=orthogonalEdgeStyle;rounded=0;orthogonalLoop=1;jettySize=auto;html=1;exitX=0.5;exitY=1;exitDx=0;exitDy=0;entryX=0.5;entryY=0;entryDx=0;entryDy=0;" edge="1" parent="1" source="FphYJKXXtfjOOIKzSNrh-264" target="FphYJKXXtfjOOIKzSNrh-265">
          <mxGeometry relative="1" as="geometry" />
        </mxCell>
        <mxCell id="FphYJKXXtfjOOIKzSNrh-264" value="Dodavanje igre u košaricu" style="rounded=1;whiteSpace=wrap;html=1;" vertex="1" parent="1">
          <mxGeometry x="380" y="414" width="140" height="40" as="geometry" />
        </mxCell>
        <mxCell id="FphYJKXXtfjOOIKzSNrh-269" style="edgeStyle=orthogonalEdgeStyle;rounded=0;orthogonalLoop=1;jettySize=auto;html=1;exitX=0;exitY=0.5;exitDx=0;exitDy=0;entryX=1;entryY=0.5;entryDx=0;entryDy=0;" edge="1" parent="1" source="FphYJKXXtfjOOIKzSNrh-265" target="FphYJKXXtfjOOIKzSNrh-268">
          <mxGeometry relative="1" as="geometry" />
        </mxCell>
        <mxCell id="FphYJKXXtfjOOIKzSNrh-265" value="Plaćanje igre" style="rounded=1;whiteSpace=wrap;html=1;" vertex="1" parent="1">
          <mxGeometry x="380" y="480" width="140" height="30" as="geometry" />
        </mxCell>
        <mxCell id="FphYJKXXtfjOOIKzSNrh-271" style="edgeStyle=orthogonalEdgeStyle;rounded=0;orthogonalLoop=1;jettySize=auto;html=1;exitX=0.5;exitY=1;exitDx=0;exitDy=0;entryX=0;entryY=0.5;entryDx=0;entryDy=0;" edge="1" parent="1" source="FphYJKXXtfjOOIKzSNrh-268" target="FphYJKXXtfjOOIKzSNrh-270">
          <mxGeometry relative="1" as="geometry">
            <Array as="points">
              <mxPoint x="250" y="548" />
              <mxPoint x="334" y="548" />
            </Array>
          </mxGeometry>
        </mxCell>
        <mxCell id="FphYJKXXtfjOOIKzSNrh-273" style="edgeStyle=orthogonalEdgeStyle;rounded=0;orthogonalLoop=1;jettySize=auto;html=1;exitX=0.5;exitY=0;exitDx=0;exitDy=0;entryX=0;entryY=0.25;entryDx=0;entryDy=0;" edge="1" parent="1" source="FphYJKXXtfjOOIKzSNrh-268" target="FphYJKXXtfjOOIKzSNrh-265">
          <mxGeometry relative="1" as="geometry">
            <Array as="points">
              <mxPoint x="250" y="450" />
              <mxPoint x="360" y="450" />
              <mxPoint x="360" y="488" />
            </Array>
          </mxGeometry>
        </mxCell>
        <mxCell id="FphYJKXXtfjOOIKzSNrh-268" value="Provjera&lt;br&gt;plaćanja" style="rhombus;whiteSpace=wrap;html=1;" vertex="1" parent="1">
          <mxGeometry x="212.5" y="457.5" width="75" height="75" as="geometry" />
        </mxCell>
        <mxCell id="FphYJKXXtfjOOIKzSNrh-279" style="edgeStyle=orthogonalEdgeStyle;rounded=0;orthogonalLoop=1;jettySize=auto;html=1;exitX=0.5;exitY=1;exitDx=0;exitDy=0;entryX=0.5;entryY=0;entryDx=0;entryDy=0;" edge="1" parent="1" source="FphYJKXXtfjOOIKzSNrh-270" target="FphYJKXXtfjOOIKzSNrh-278">
          <mxGeometry relative="1" as="geometry" />
        </mxCell>
        <mxCell id="FphYJKXXtfjOOIKzSNrh-270" value="Preuzimanje igre" style="rounded=1;whiteSpace=wrap;html=1;" vertex="1" parent="1">
          <mxGeometry x="380" y="532.5" width="140" height="30" as="geometry" />
        </mxCell>
        <mxCell id="FphYJKXXtfjOOIKzSNrh-272" value="Uspjeh" style="text;html=1;strokeColor=none;fillColor=none;align=center;verticalAlign=middle;whiteSpace=wrap;rounded=0;" vertex="1" parent="1">
          <mxGeometry x="270" y="530" width="80" height="20" as="geometry" />
        </mxCell>
        <mxCell id="FphYJKXXtfjOOIKzSNrh-274" value="Neuspjeh" style="text;html=1;strokeColor=none;fillColor=none;align=center;verticalAlign=middle;whiteSpace=wrap;rounded=0;" vertex="1" parent="1">
          <mxGeometry x="250" y="434" width="90" height="20" as="geometry" />
        </mxCell>
        <mxCell id="FphYJKXXtfjOOIKzSNrh-281" style="edgeStyle=orthogonalEdgeStyle;rounded=0;orthogonalLoop=1;jettySize=auto;html=1;exitX=0.5;exitY=1;exitDx=0;exitDy=0;entryX=0.5;entryY=0;entryDx=0;entryDy=0;" edge="1" parent="1" source="FphYJKXXtfjOOIKzSNrh-275" target="FphYJKXXtfjOOIKzSNrh-276">
          <mxGeometry relative="1" as="geometry" />
        </mxCell>
        <mxCell id="FphYJKXXtfjOOIKzSNrh-275" value="Funkcije upravljanja korisnicima" style="rounded=1;whiteSpace=wrap;html=1;" vertex="1" parent="1">
          <mxGeometry x="780" y="424" width="140" height="40" as="geometry" />
        </mxCell>
        <mxCell id="FphYJKXXtfjOOIKzSNrh-282" style="edgeStyle=orthogonalEdgeStyle;rounded=0;orthogonalLoop=1;jettySize=auto;html=1;exitX=0.5;exitY=1;exitDx=0;exitDy=0;entryX=0.5;entryY=0;entryDx=0;entryDy=0;" edge="1" parent="1" source="FphYJKXXtfjOOIKzSNrh-276" target="FphYJKXXtfjOOIKzSNrh-277">
          <mxGeometry relative="1" as="geometry" />
        </mxCell>
        <mxCell id="FphYJKXXtfjOOIKzSNrh-276" value="Funkcije upravljanja transakcijama" style="rounded=1;whiteSpace=wrap;html=1;" vertex="1" parent="1">
          <mxGeometry x="780" y="490" width="140" height="40" as="geometry" />
        </mxCell>
        <mxCell id="FphYJKXXtfjOOIKzSNrh-294" style="edgeStyle=orthogonalEdgeStyle;rounded=0;orthogonalLoop=1;jettySize=auto;html=1;exitX=0.5;exitY=1;exitDx=0;exitDy=0;entryX=1;entryY=0.25;entryDx=0;entryDy=0;" edge="1" parent="1" source="FphYJKXXtfjOOIKzSNrh-277" target="FphYJKXXtfjOOIKzSNrh-287">
          <mxGeometry relative="1" as="geometry" />
        </mxCell>
        <mxCell id="FphYJKXXtfjOOIKzSNrh-277" value="Funkcije upravljanja recenzijama" style="rounded=1;whiteSpace=wrap;html=1;" vertex="1" parent="1">
          <mxGeometry x="780" y="560" width="140" height="40" as="geometry" />
        </mxCell>
        <mxCell id="FphYJKXXtfjOOIKzSNrh-293" style="edgeStyle=orthogonalEdgeStyle;rounded=0;orthogonalLoop=1;jettySize=auto;html=1;exitX=0.5;exitY=1;exitDx=0;exitDy=0;entryX=0;entryY=0.5;entryDx=0;entryDy=0;" edge="1" parent="1" source="FphYJKXXtfjOOIKzSNrh-278" target="FphYJKXXtfjOOIKzSNrh-287">
          <mxGeometry relative="1" as="geometry" />
        </mxCell>
        <mxCell id="FphYJKXXtfjOOIKzSNrh-278" value="Recenzija igre" style="rounded=1;whiteSpace=wrap;html=1;" vertex="1" parent="1">
          <mxGeometry x="380" y="580" width="140" height="30" as="geometry" />
        </mxCell>
        <mxCell id="FphYJKXXtfjOOIKzSNrh-295" style="edgeStyle=orthogonalEdgeStyle;rounded=0;orthogonalLoop=1;jettySize=auto;html=1;exitX=0.5;exitY=1;exitDx=0;exitDy=0;entryX=1;entryY=0.75;entryDx=0;entryDy=0;" edge="1" parent="1" source="FphYJKXXtfjOOIKzSNrh-283" target="FphYJKXXtfjOOIKzSNrh-287">
          <mxGeometry relative="1" as="geometry" />
        </mxCell>
        <mxCell id="FphYJKXXtfjOOIKzSNrh-283" value="Pregled izvještaja" style="rounded=1;whiteSpace=wrap;html=1;" vertex="1" parent="1">
          <mxGeometry x="982.5" y="358.75" width="135" height="32.5" as="geometry" />
        </mxCell>
        <mxCell id="FphYJKXXtfjOOIKzSNrh-285" value="" style="endArrow=classic;html=1;rounded=0;entryX=0.5;entryY=0;entryDx=0;entryDy=0;" edge="1" parent="1" target="FphYJKXXtfjOOIKzSNrh-283">
          <mxGeometry width="50" height="50" relative="1" as="geometry">
            <mxPoint x="730" y="340" as="sourcePoint" />
            <mxPoint x="790" y="430" as="targetPoint" />
            <Array as="points">
              <mxPoint x="1050" y="340" />
            </Array>
          </mxGeometry>
        </mxCell>
        <mxCell id="FphYJKXXtfjOOIKzSNrh-292" style="edgeStyle=orthogonalEdgeStyle;rounded=0;orthogonalLoop=1;jettySize=auto;html=1;exitX=0.5;exitY=1;exitDx=0;exitDy=0;entryX=0.5;entryY=0;entryDx=0;entryDy=0;" edge="1" parent="1" source="FphYJKXXtfjOOIKzSNrh-287" target="FphYJKXXtfjOOIKzSNrh-290">
          <mxGeometry relative="1" as="geometry" />
        </mxCell>
        <mxCell id="FphYJKXXtfjOOIKzSNrh-287" value="Odjava" style="rounded=1;whiteSpace=wrap;html=1;" vertex="1" parent="1">
          <mxGeometry x="610" y="650" width="80" height="25" as="geometry" />
        </mxCell>
        <mxCell id="FphYJKXXtfjOOIKzSNrh-290" value="" style="ellipse;whiteSpace=wrap;html=1;aspect=fixed;" vertex="1" parent="1">
          <mxGeometry x="635" y="705" width="30" height="30" as="geometry" />
        </mxCell>
        <mxCell id="FphYJKXXtfjOOIKzSNrh-289" value="" style="ellipse;whiteSpace=wrap;html=1;aspect=fixed;fillColor=#000000;" vertex="1" parent="1">
          <mxGeometry x="640" y="710" width="20" height="20" as="geometry" />
        </mxCell>
      </root>
    </mxGraphModel>
  </diagram>
</mxfile>
